<svg viewBox="0 0 48 48" xmlns="http://www.w3.org/2000/svg" stroke="#3066" stroke-width="2" fill="none"
	stroke-linecap="round" stroke-linejoin="round">
	<path d="
	M 6,14
	v 20
	a 18,20 0,0,1 18,1
	a 18,20 0,0,1 18,-1
	v -20
	a 18,20 0,0,0 -18,1
	a 18 20 0 0 0 -18 -1 z
	m 18 1
	v 20
	" />
	<path stroke-width="1.4" d="
	M 8 36
	v 2
	a 16,24 0,0,1 14,-1
	a 8,24 0,0,0 4,0
	a 16,24 0,0,1 14,1
	v -2
	M 28,18
	a 16,24 0,0,1 9,-0.5
	m -9,5
	a 16,24 0,0,1 9,-0.5
	m -9,5
	a 16,24 0,0,1 9,-0.5
	" />
</svg>