<?xml version="1.0" encoding="utf-8"?>
<!-- Generator: Adobe Illustrator 26.3.1, SVG Export Plug-In . SVG Version: 6.00 Build 0)  -->
<svg version="1.1" xmlns="http://www.w3.org/2000/svg" xmlns:xlink="http://www.w3.org/1999/xlink" x="0px" y="0px"
	 viewBox="0 0 360 100" style="enable-background:new 0 0 360 100;" xml:space="preserve">
<style type="text/css">
	.st0{display:none;}
	.st1{display:inline;}
	.st2{display:inline;fill:#0066CC;}
	.st3{display:inline;fill:#FFDA00;}
	.st4{opacity:0.25;fill:#FFFFFF;}
	.st5{opacity:0.25;fill:#FFFFFF;enable-background:new    ;}
	.st6{fill:#FFFFFF;}
	.st7{opacity:0.5;fill:#FFFFFF;}
</style>
<g id="Layer_2" class="st0">
	<rect class="st1" width="175" height="100"/>
	<rect x="175" class="st2" width="175" height="100"/>
	<circle class="st3" cx="175" cy="50" r="44"/>
</g>
<g id="Layer_1">
	<path class="st4" d="M63,50c0,18,4.2,34.9,11.8,50h200.5c7.5-15.1,11.8-32,11.8-50s-4.2-34.9-11.8-50H74.8C67.2,15.1,63,32,63,50z"
		/>
	<path class="st5" d="M105,50c0,19.6,8.1,37.3,21,50H224c13-12.7,21-30.4,21-50s-8.1-37.3-21-50H126C113.1,12.7,105,30.4,105,50z"/>
	<polygon class="st6" points="61.9,15 62.6,10.8 63.3,15 67.6,15.8 63.3,16.5 62.6,20.8 61.9,16.5 57.6,15.8 	"/>
	<polygon class="st6" points="111.8,30.7 113.1,23 114.3,30.7 122.1,32 114.3,33.3 113.1,41 111.8,33.3 104.1,32 	"/>
	<polygon class="st6" points="69.2,45.9 70.3,39 71.4,45.9 78.3,47 71.4,48.1 70.3,55 69.2,48.1 62.3,47 	"/>
	<polygon class="st6" points="95.2,76.9 97.4,67 99.5,76.9 109.4,79 99.5,81.1 97.4,91 95.2,81.1 85.4,79 	"/>
	<polygon class="st6" points="30,37.4 30.5,34 31.1,37.4 34.5,38 31.1,38.6 30.5,42 30,38.6 26.5,38 	"/>
	<polygon class="st6" points="45.2,71.3 46.2,66.4 47.3,71.3 52.2,72.4 47.3,73.5 46.2,78.4 45.2,73.5 40.2,72.4 	"/>
	<path class="st6" d="M327.7,66.6c-0.8-0.1-1.7-0.2-2.5-0.2c-5.5,0-10.3,2.6-13.2,6.5c-1.7-0.6-3.6-0.9-5.6-0.9
		c-2.6,0-5.1,0.6-7.2,1.6c-3.9-2.7-8.8-4.3-14-4.3c-12.5,0-22.8,9.1-23.6,20.5c-1.4-0.6-3-0.9-4.7-0.9c-3.5,0-6.6,1.4-8.8,3.6
		c-3-3.4-7.5-5.6-12.5-5.6c-6.4,0-11.9,3.5-14.5,8.5c0,0-0.1,0-0.1,0c-3.1,0-5.7,1.9-6.6,4.5H360V39C343,39,329.1,51.2,327.7,66.6z"
		/>
	<path class="st7" d="M248,97.9c1.6,1.1,3.5,1.8,5.5,2.1h3.1c3.7-0.5,6.8-2.5,8.7-5.4c2,2.2,4.5,4.1,7.3,5.4h21.4
		c3.5-1.7,6.5-4.2,8.8-7.2c-0.7,2.3-1,4.7-1,7.2H360V28.1c-0.7,0-1.4-0.1-2.1-0.1c-16.9,0-30.8,12.1-32.2,27.6
		c-0.8-0.1-1.7-0.2-2.5-0.2c-5.5,0-10.3,2.6-13.2,6.5c-1.7-0.6-3.6-0.9-5.6-0.9c-2.6,0-5,0.6-7.2,1.6c-3.9-2.7-8.7-4.3-14-4.3
		c-12.5,0-22.7,9.1-23.5,20.5c-1.4-0.6-3-0.9-4.7-0.9c-3.5,0-6.6,1.4-8.7,3.6c-2.9-3.4-7.4-5.6-12.5-5.6c-6.4,0-11.9,3.5-14.5,8.5
		c0,0-0.1,0-0.1,0c-3.1,0-5.8,2-6.6,4.6c-4.3,2-7.3,6.1-7.3,10.9h41.2C247.1,99.4,247.6,98.7,248,97.9z"/>
</g>
</svg>
