<?xml version="1.0" encoding="utf-8"?>
<!-- Generator: Adobe Illustrator 26.3.1, SVG Export Plug-In . SVG Version: 6.00 Build 0)  -->
<svg version="1.1" xmlns="http://www.w3.org/2000/svg" xmlns:xlink="http://www.w3.org/1999/xlink" x="0px" y="0px"
	 viewBox="0 0 100 200" enable-background="new 0 0 100 200" xml:space="preserve">
<g id="Layer_2" display="none">
	<rect display="inline" fill="#330066" width="100" height="200"/>
	<circle display="inline" fill="#E4E4E4" cx="50" cy="150" r="50"/>
</g>
<g id="Layer_1">
	<g>
		<path fill="#888888" d="M85.18,121.693c0-2.064-1.674-3.738-3.738-3.738c-2.064,0-3.738,1.674-3.738,3.738
			c0,2.064,1.674,3.738,3.738,3.738C83.507,125.431,85.18,123.757,85.18,121.693z"/>
		<circle fill="#888888" cx="30.523" cy="122.698" r="12.305"/>
		<circle fill="#888888" cx="62.524" cy="132.505" r="7.074"/>
		
			<ellipse transform="matrix(0.9732 -0.2298 0.2298 0.9732 -35.5455 8.3813)" fill="#888888" cx="18.219" cy="156.833" rx="8.441" ry="8.441"/>
		
			<ellipse transform="matrix(0.7071 -0.7071 0.7071 0.7071 -116.9302 77.9088)" fill="#888888" cx="35.579" cy="180.102" rx="5.825" ry="5.825"/>
		<path fill="#888888" d="M86.627,138.826c-2.064,0-3.738,1.674-3.738,3.738c0,2.064,1.674,3.738,3.738,3.738
			s3.738-1.674,3.738-3.738C90.365,140.5,88.691,138.826,86.627,138.826z"/>
	</g>
	<g>
		<path fill="#AAAAAA" d="M82.442,118.955c-2.064,0-3.738,1.674-3.738,3.738c0,0.777,0.237,1.498,0.643,2.095
			c0.598,0.405,1.319,0.643,2.095,0.643c2.064,0,3.738-1.674,3.738-3.738c0-0.777-0.237-1.498-0.643-2.095
			C83.94,119.192,83.219,118.955,82.442,118.955z"/>
		<path fill="#AAAAAA" d="M32.523,112.393c-6.796,0-12.305,5.509-12.305,12.305c0,2.888,1.002,5.538,2.668,7.637
			c2.099,1.666,4.749,2.668,7.637,2.668c6.796,0,12.305-5.509,12.305-12.305c0-2.888-1.002-5.538-2.668-7.637
			C38.061,113.395,35.411,112.393,32.523,112.393z"/>
		<path fill="#AAAAAA" d="M64.524,127.431c-3.907,0-7.074,3.167-7.074,7.074c0,1.442,0.434,2.781,1.174,3.9
			c1.118,0.741,2.458,1.174,3.9,1.174c3.907,0,7.074-3.167,7.074-7.074c0-1.442-0.434-2.781-1.174-3.9
			C67.306,127.865,65.966,127.431,64.524,127.431z"/>
		<path fill="#AAAAAA" d="M20.219,150.392c-4.662,0-8.44,3.779-8.44,8.44c0,1.82,0.582,3.501,1.561,4.879
			c1.378,0.98,3.059,1.561,4.879,1.561c4.662,0,8.441-3.779,8.441-8.441c0-1.82-0.582-3.501-1.561-4.879
			C23.719,150.974,22.039,150.392,20.219,150.392z"/>
		<path fill="#AAAAAA" d="M36.579,175.276c-3.217,0-5.825,2.608-5.825,5.825c0,1.354,0.466,2.596,1.24,3.585
			c0.989,0.774,2.231,1.24,3.585,1.24c3.217,0,5.825-2.608,5.825-5.825c0-1.354-0.466-2.596-1.24-3.585
			C39.175,175.742,37.933,175.276,36.579,175.276z"/>
		<path fill="#AAAAAA" d="M87.627,139.826c-2.064,0-3.738,1.674-3.738,3.738c0,0.777,0.237,1.497,0.643,2.095
			c0.598,0.406,1.319,0.643,2.095,0.643c2.064,0,3.738-1.674,3.738-3.738c0-0.777-0.237-1.498-0.643-2.095
			C89.125,140.064,88.404,139.826,87.627,139.826z"/>
	</g>
</g>
</svg>
