<?xml version="1.0" encoding="utf-8"?>
<!-- Generator: Adobe Illustrator 26.3.1, SVG Export Plug-In . SVG Version: 6.00 Build 0)  -->
<svg version="1.1" xmlns="http://www.w3.org/2000/svg" xmlns:xlink="http://www.w3.org/1999/xlink" x="0px" y="0px"
	 viewBox="0 0 500.004 505.726" enable-background="new 0 0 500.004 505.726" xml:space="preserve">
<g id="Layer_1">
	<path fill="#CC99FF" d="M321.838,128.659C321.831,79.906,268.285,55.847,250.001,0c-18.282,55.847-71.829,79.906-71.836,128.659
		c0,26.683,15.701,52.597,59.914,113.515c-44.213-60.918-46.368-82.964-46.368-102.028c0-23.608,7.039-47.079,36.339-85.572
		c0,0,4.613,23.048,22.081,23.093c17.47-0.044,21.82-23.093,21.82-23.093c29.302,38.493,36.339,61.964,36.339,85.572
		c0,19.064-2.154,41.11-46.367,102.028C306.136,181.256,321.838,155.342,321.838,128.659z M250.001,66.801
		c-0.011-19.174-3.952-30.023-7.903-30.023c3.952,0,7.903-7.462,7.903-15.376c0,7.915,3.952,15.376,7.904,15.376
		C253.953,36.778,250.011,47.627,250.001,66.801z"/>
	<path fill="#CC99FF" d="M144.561,152.843C98.192,137.784,58.764,181.276,0,181.407c47.465,34.644,53.799,93.005,100.164,108.078
		c25.378,8.246,54.875,1.32,126.474-21.904c-71.599,23.225-93.232,18.461-111.362,12.57c-22.453-7.295-42.6-21.242-70.155-61.003
		c0,0,23.346,2.735,28.786-13.865c5.357-16.627-15.22-27.888-15.22-27.888c45.664-15.972,70.161-15.412,92.613-8.117
		c18.131,5.891,38.433,14.753,82.706,75.626C189.732,184.03,169.939,161.089,144.561,152.843z M63.533,202.049
		c-18.24-5.914-29.775-5.52-30.996-1.761c1.221-3.759-4.654-9.823-12.182-12.268c7.527,2.445,15.845,0.994,17.066-2.765
		C36.2,189.014,45.299,196.115,63.533,202.049z"/>
	<path fill="#CC99FF" d="M113.074,328.971c-28.651,39.445,0.528,90.385-17.507,146.312c47.616-34.436,105.079-22.426,133.741-61.863
		c15.684-21.588,18.213-51.781,18.25-127.053c-0.037,75.272-11.252,94.373-22.457,109.797c-13.877,19.1-33.367,33.949-79.698,47.869
		c0,0,9.816-21.357-4.291-31.662c-14.159-10.23-31.226,5.857-31.226,5.857c-1.08-48.365,7.023-71.488,20.9-90.588
		c11.205-15.424,25.907-31.992,97.482-55.289C156.693,295.648,128.758,307.383,113.074,328.971z M134.832,421.238
		c-11.261,15.52-14.451,26.611-11.253,28.935c-3.197-2.324-10.78,1.391-15.432,7.795c4.652-6.404,5.841-14.764,2.644-17.086
		C113.988,443.205,123.554,436.746,134.832,421.238z"/>
	<path fill="#CC99FF" d="M270.892,413.419c28.662,39.439,86.123,27.43,133.741,61.863c-18.036-55.926,11.143-106.865-17.507-146.311
		c-15.684-21.587-43.618-33.323-115.194-56.618c71.576,23.295,86.278,39.865,97.483,55.287c13.876,19.1,21.977,42.226,20.898,90.59
		c0,0-17.279-15.936-31.438-5.703c-14.106,10.303-4.078,31.508-4.078,31.508c-46.332-13.92-65.821-28.772-79.697-47.871
		c-11.205-15.422-22.422-34.525-22.459-109.796C252.679,361.638,255.208,391.833,270.892,413.419z M365.369,421.239
		c11.279,15.506,20.844,21.967,24.041,19.643c-3.197,2.324-2.008,10.684,2.645,17.086c-4.652-6.402-12.234-10.117-15.432-7.795
		C379.82,447.851,376.63,436.757,365.369,421.239z"/>
	<path fill="#CC99FF" d="M399.84,289.484c46.364-15.072,52.699-73.433,100.162-108.079c-58.762-0.129-98.191-43.621-144.56-28.562
		c-25.377,8.245-45.17,31.185-89.443,92.06c44.273-60.875,64.575-69.736,82.705-75.627c22.453-7.296,46.951-7.854,92.613,8.117
		c0,0-20.494,11.51-15.139,28.136c5.44,16.601,28.705,13.616,28.705,13.616c-27.555,39.763-47.702,53.709-70.155,61.004
		c-18.13,5.891-39.763,10.654-111.362-12.57C344.965,290.804,374.463,297.729,399.84,289.484z M436.471,202.048
		c18.232-5.936,27.332-13.035,26.111-16.793c1.221,3.758,9.539,5.21,17.066,2.764c-7.527,2.446-13.402,8.51-12.182,12.268
		C466.247,196.528,454.709,196.133,436.471,202.048z"/>
</g>
<g id="Layer_2" display="none">
	<path display="inline" fill="#FFCCCC" d="M264.734,215.561c0,7.992-6.48,14.471-14.474,14.471c-7.993,0-14.471-6.478-14.471-14.471
		c0-7.994,6.478-14.473,14.471-14.473C258.253,201.088,264.734,207.567,264.734,215.561z"/>
	<path display="inline" fill="#FFCCCC" d="M209.612,234.254c7.601,2.469,11.76,10.635,9.29,18.235
		c-2.469,7.602-10.634,11.761-18.234,9.291c-7.602-2.47-11.762-10.634-9.292-18.234C193.846,235.945,202.01,231.783,209.612,234.254
		z"/>
	<path display="inline" fill="#FFCCCC" d="M210.69,292.383c4.698-6.466,13.749-7.9,20.216-3.201
		c6.466,4.697,7.899,13.749,3.201,20.215c-4.698,6.466-13.748,7.898-20.214,3.201C207.427,307.9,205.992,298.85,210.69,292.383z"/>
	<path display="inline" fill="#FFCCCC" d="M266.35,309.564c-4.696-6.466-3.263-15.518,3.203-20.215
		c6.464-4.697,15.515-3.263,20.213,3.203c4.699,6.466,3.265,15.517-3.201,20.213C280.099,317.462,271.048,316.029,266.35,309.564z"
		/>
	<path display="inline" fill="#FFCCCC" d="M299.593,261.646c-7.6,2.471-15.764-1.689-18.232-9.292
		c-2.472-7.6,1.687-15.765,9.292-18.235c7.602-2.471,15.765,1.69,18.232,9.29C311.358,251.012,307.197,259.178,299.593,261.646z"/>
</g>
<g id="Layer_3">
	<path fill="#FFCCCC" d="M250.001,221.5c5.1,0,9.15,1.167,13.391,5.531C250.001,207.75,250.001,115.576,250.001,97
		c0,18.576,0,110.75-13.391,130.031C240.851,222.667,244.902,221.5,250.001,221.5z"/>
	<path fill="#FFCCCC" d="M210.699,249.814c1.576-4.85,3.938-8.342,9.398-11.026c-22.475,6.777-110.137-21.706-127.804-27.447
		c17.667,5.74,105.33,34.224,119.529,52.918C208.982,258.877,209.123,254.664,210.699,249.814z"/>
	<path fill="#FFCCCC" d="M225.656,296.012c-4.126-2.998-6.717-6.323-7.582-12.347c-0.5,23.47-54.678,98.04-65.597,113.069
		c10.919-15.029,65.097-89.6,87.263-97.328C233.745,300.445,229.782,299.009,225.656,296.012z"/>
	<path fill="#FFCCCC" d="M274.333,296.012c-4.126,2.998-8.089,4.434-14.085,3.396c22.167,7.729,76.346,82.299,87.264,97.327
		c-10.918-15.028-65.097-89.599-65.598-113.068C281.05,289.69,278.459,293.014,274.333,296.012z"/>
	<path fill="#FFCCCC" d="M289.383,249.814c1.576,4.85,1.719,9.063-1.122,14.445c14.2-18.694,101.862-47.177,119.529-52.917
		c-17.667,5.74-105.329,34.224-127.806,27.446C285.446,241.472,287.808,244.963,289.383,249.814z"/>
	<circle fill="#FFCC99" cx="250.001" cy="262.325" r="10.325"/>
</g>
<g id="Layer_4">
	<path fill="#CCCCFF" d="M273.853,505.724c5.288-5.742,8.52-13.406,8.52-21.825c0-17.805-14.435-32.24-32.24-32.24
		c-17.806,0-32.241,14.436-32.241,32.24c0,8.42,3.232,16.084,8.518,21.827c-9.011-7.054-14.811-18.023-14.811-30.353
		c0-21.28,17.252-38.53,38.533-38.53c21.281,0,38.53,17.25,38.53,38.53C288.663,487.701,282.865,498.672,273.853,505.724z"/>
	<path fill="#CCCCFF" d="M27.687,361.669c7.095,3.254,15.381,3.958,23.389,1.356c16.934-5.503,26.202-23.692,20.698-40.625
		c-5.502-16.936-23.689-26.201-40.623-20.699c-8.008,2.603-14.299,8.044-18.126,14.846c3.924-10.749,12.562-19.654,24.289-23.465
		c20.238-6.575,41.977,4.499,48.553,24.741c6.577,20.237-4.5,41.976-24.738,48.551C49.402,370.185,37.179,368.06,27.687,361.669z"/>
	<path fill="#CCCCFF" d="M88.953,83.104c-0.9,7.754,0.99,15.852,5.939,22.663c10.466,14.406,30.628,17.6,45.033,7.134
		c14.405-10.466,17.598-30.628,7.133-45.033c-4.95-6.811-12.069-11.112-19.721-12.652c11.436,0.41,22.575,5.875,29.822,15.852
		c12.507,17.215,8.691,41.312-8.525,53.82c-17.215,12.507-41.313,8.692-53.821-8.524C87.567,106.389,85.81,94.106,88.953,83.104z"/>
	<path fill="#CCCCFF" d="M372.858,55.049c-7.65,1.539-14.769,5.841-19.717,12.651c-10.465,14.404-7.272,34.568,7.13,45.032
		c14.406,10.465,34.568,7.273,45.035-7.132c4.95-6.813,6.839-14.911,5.939-22.665c3.143,11.004,1.389,23.287-5.86,33.262
		c-12.508,17.217-36.605,21.032-53.821,8.522c-17.216-12.507-21.033-36.604-8.525-53.82
		C350.285,60.925,361.423,55.46,372.858,55.049z"/>
	<path fill="#CCCCFF" d="M486.978,316.681c-3.826-6.802-10.119-12.243-18.127-14.844c-16.933-5.504-35.122,3.764-40.624,20.698
		c-5.502,16.935,3.767,35.124,20.7,40.624c8.01,2.602,16.296,1.896,23.392-1.357c-9.493,6.391-21.718,8.519-33.443,4.709
		c-20.24-6.576-31.315-28.317-24.738-48.555c6.573-20.239,28.312-31.315,48.551-24.74
		C474.414,297.026,483.056,305.931,486.978,316.681z"/>
</g>
</svg>
